<?xml version="1.0" ?>
<!-- Uploaded to: SVG Repo, www.svgrepo.com, Generator: SVG Repo Mixer Tools -->
<svg fill="#000000" width="800px" height="800px" viewBox="0 0 64 64" xmlns="http://www.w3.org/2000/svg">
<title/>
<g data-name="Layer 25" id="Layer_25">
<path d="M59.545,4.81A7.077,7.077,0,0,0,53,0a6.819,6.819,0,0,0-5.488,2.829A6.715,6.715,0,0,0,43,1.075a6.791,6.791,0,0,0-5.1,2.352,6.784,6.784,0,0,0-11.79,0A6.791,6.791,0,0,0,21,1.075a6.715,6.715,0,0,0-4.512,1.754A6.819,6.819,0,0,0,11,0,7.077,7.077,0,0,0,4.455,4.81,7.412,7.412,0,0,0,0,11.751a7.323,7.323,0,0,0,6.056,7.383,7.649,7.649,0,0,0,1.95,4.24c0,.043-.006.084-.006.126,0,.07,0,.105,4.005,39.6A1,1,0,0,0,13,64H51A1,1,0,0,0,52,63.1l4-39.5c0-.034.005-.068.005-.1s-.005-.083-.006-.126a7.649,7.649,0,0,0,1.95-4.24A7.323,7.323,0,0,0,64,11.751,7.412,7.412,0,0,0,59.545,4.81ZM13.9,62c-.591-5.845-3.864-38.113-3.9-38.5,0-.156.012-.31.023-.461A5.528,5.528,0,0,1,15.5,18a5.472,5.472,0,0,1,4.653,2.579,1.044,1.044,0,0,0,.157.192L21.959,62Zm9.789-43.22c.116-.07.235-.132.356-.193.08-.041.162-.08.245-.117.1-.045.2-.087.307-.125s.222-.077.335-.11c.088-.027.177-.054.267-.076.138-.033.279-.058.421-.081.072-.012.143-.027.217-.036a5.349,5.349,0,0,1,1.346,0c.079.01.155.03.232.043.146.025.292.048.434.083.091.024.178.056.268.084.124.038.249.074.37.121.093.037.183.082.274.123.112.051.224.1.332.158.091.049.177.105.266.159s.2.124.3.194.165.127.247.192.188.149.277.231.149.145.222.22.171.175.251.269c.067.079.131.162.194.245.05.066.1.133.145.2V62H23.961L22.28,20a5.549,5.549,0,0,1,1.283-1.137C23.606,18.835,23.648,18.806,23.692,18.78ZM33,20.366c.047-.068.095-.135.145-.2.063-.083.127-.166.194-.245.08-.094.165-.182.251-.269s.145-.15.222-.22.183-.156.277-.231.162-.132.247-.192.2-.131.3-.194.175-.11.266-.159c.108-.058.22-.107.332-.158.091-.041.181-.086.274-.123.121-.047.246-.083.37-.121.09-.028.177-.06.268-.084.142-.035.288-.058.434-.083.077-.013.153-.033.232-.043a5.349,5.349,0,0,1,1.346,0c.073.009.145.024.217.036.142.023.283.048.421.081.09.022.179.05.267.076.113.033.225.069.335.11s.206.08.307.125c.083.037.165.076.245.117.121.061.24.123.356.193.044.026.086.055.129.083A5.549,5.549,0,0,1,41.72,20L40.039,62H33ZM50.1,62H42.041L43.69,20.771a1.044,1.044,0,0,0,.157-.192A5.472,5.472,0,0,1,48.5,18a5.528,5.528,0,0,1,5.476,5.037c.011.138.022.275.024.416ZM57,17.2a1,1,0,0,0-1,1,5.812,5.812,0,0,1-.556,2.487c-.014-.036-.036-.068-.051-.1A7.69,7.69,0,0,0,55,19.8c-.028-.048-.053-.1-.082-.146a7.636,7.636,0,0,0-.548-.784c-.043-.055-.088-.107-.133-.16A7.535,7.535,0,0,0,53.574,18l-.006-.006a7.594,7.594,0,0,0-.765-.609c-.057-.04-.113-.08-.171-.119a7.428,7.428,0,0,0-.828-.484c-.047-.023-.095-.042-.142-.064a7.394,7.394,0,0,0-.825-.331c-.051-.017-.1-.037-.153-.053a7.334,7.334,0,0,0-.95-.224c-.071-.012-.141-.021-.213-.031A7.324,7.324,0,0,0,48.5,16a7.76,7.76,0,0,0-.81.044c-.092.01-.182.03-.273.043-.173.025-.346.049-.516.086-.108.023-.213.057-.32.085-.148.039-.3.076-.443.125-.112.037-.221.083-.331.125-.135.052-.27.1-.4.162-.111.051-.218.109-.326.164-.125.064-.25.128-.371.2s-.21.133-.314.2-.23.152-.342.235-.2.154-.3.234-.213.177-.315.271-.182.175-.271.266c-.056.057-.117.108-.171.167a7.508,7.508,0,0,0-1.339-1.138c-.031-.021-.063-.04-.094-.06-.192-.125-.388-.24-.59-.346-.071-.038-.144-.074-.217-.11-.167-.08-.336-.155-.509-.223-.095-.038-.19-.075-.286-.109-.162-.056-.325-.1-.491-.148-.1-.029-.207-.06-.313-.084-.177-.039-.356-.068-.536-.095-.095-.014-.189-.034-.284-.045a7.11,7.11,0,0,0-1.724.007c-.094.011-.185.029-.278.044-.2.03-.393.066-.586.112-.1.025-.206.053-.308.082-.183.052-.362.111-.539.177-.1.035-.194.07-.29.109-.2.082-.385.174-.572.272-.068.035-.138.065-.2.1a7.458,7.458,0,0,0-.718.458c-.061.044-.117.095-.177.141-.169.13-.334.265-.492.41-.078.071-.151.146-.225.22s-.156.145-.228.223c-.072-.078-.152-.148-.228-.223s-.147-.149-.225-.22c-.158-.145-.324-.281-.493-.411-.059-.045-.115-.1-.175-.139a7.413,7.413,0,0,0-.719-.459c-.066-.038-.136-.068-.2-.1-.187-.1-.377-.19-.572-.272-.1-.039-.193-.074-.29-.109-.177-.066-.356-.125-.539-.177-.1-.029-.2-.057-.308-.082-.193-.046-.389-.082-.586-.113-.093-.014-.184-.032-.278-.043a7.11,7.11,0,0,0-1.724-.007c-.1.011-.189.031-.284.045-.18.027-.359.055-.536.095-.106.024-.209.055-.314.084-.165.045-.329.092-.49.148-.1.034-.191.071-.286.109-.173.068-.342.143-.509.223-.073.036-.146.072-.217.11q-.3.159-.589.346c-.032.02-.064.039-.1.06A7.508,7.508,0,0,0,21,18.407c-.054-.059-.115-.11-.171-.167-.089-.091-.178-.18-.271-.266s-.208-.183-.315-.271-.194-.159-.295-.234-.227-.159-.343-.235-.206-.138-.313-.2-.246-.135-.371-.2c-.108-.055-.215-.113-.326-.164-.132-.059-.267-.11-.4-.162-.11-.042-.219-.088-.331-.125-.145-.049-.295-.086-.444-.125-.107-.029-.211-.062-.319-.085-.17-.037-.343-.061-.516-.086-.092-.013-.181-.033-.273-.043A7.76,7.76,0,0,0,15.5,16a7.324,7.324,0,0,0-1.021.079c-.072.01-.142.019-.213.031a7.334,7.334,0,0,0-.95.224c-.052.016-.1.036-.154.053a7.657,7.657,0,0,0-.824.331c-.047.022-.095.041-.142.065a7.512,7.512,0,0,0-.828.483c-.058.039-.114.079-.171.119a7.5,7.5,0,0,0-.764.609L10.424,18a7.6,7.6,0,0,0-.662.7c-.045.054-.09.107-.134.162a7.592,7.592,0,0,0-.546.782c-.03.049-.055.1-.083.148a7.5,7.5,0,0,0-.393.787c-.015.035-.036.066-.05.1A5.812,5.812,0,0,1,8,18.2a1,1,0,0,0-1-1,5.246,5.246,0,0,1-5-5.45A5.449,5.449,0,0,1,5.568,6.529a1,1,0,0,0,.654-.679A5.043,5.043,0,0,1,11,2a4.956,4.956,0,0,1,4.425,2.921,1,1,0,0,0,1.7.165A4.835,4.835,0,0,1,21,3.075a4.956,4.956,0,0,1,4.394,2.851.98.98,0,0,0,.981.549,1,1,0,0,0,.871-.71,4.884,4.884,0,0,1,9.508,0,1,1,0,0,0,.871.71.976.976,0,0,0,.981-.549A4.956,4.956,0,0,1,43,3.075a4.835,4.835,0,0,1,3.874,2.011,1.008,1.008,0,0,0,.9.395,1,1,0,0,0,.8-.56A4.956,4.956,0,0,1,53,2a5.043,5.043,0,0,1,4.778,3.85,1,1,0,0,0,.654.679A5.449,5.449,0,0,1,62,11.751,5.246,5.246,0,0,1,57,17.2Z"/>
<path d="M13,8H11a1,1,0,0,0,0,2h2a1,1,0,0,0,0-2Z"/>
<path d="M33,8H31a1,1,0,0,0,0,2h2a1,1,0,0,0,0-2Z"/>
<path d="M23,12H21a1,1,0,0,0,0,2h2a1,1,0,0,0,0-2Z"/>
<path d="M53,8H51a1,1,0,0,0,0,2h2a1,1,0,0,0,0-2Z"/>
<path d="M43,12H41a1,1,0,0,0,0,2h2a1,1,0,0,0,0-2Z"/>
</g>
</svg>